name Walk4.mot
datacolumns 19
datarows 10
range 3.16000000 3.20500000
endheader

                time	   L_ground_force_vx	   L_ground_force_vy	   L_ground_force_vz	   L_ground_force_px	   L_ground_force_py	   L_ground_force_pz	   R_ground_force_vx	   R_ground_force_vy	   R_ground_force_vz	   R_ground_force_px	   R_ground_force_py	   R_ground_force_pz	   L_ground_torque_x	   L_ground_torque_y	   L_ground_torque_z	   R_ground_torque_x	   R_ground_torque_y	   R_ground_torque_z	
          3.16000000	         -0.93528911	        741.41799808	         58.75918616	         -0.30141175	          0.00000000	         -0.09786956	         -0.00569041	          0.07070516	          0.01450365	          0.00005926	          0.00000000	          0.00005734	          0.00000000	          2.58949835	          0.00000000	          0.00000000	         -0.00011382	          0.00000000	
          3.16500000	          1.22087239	        746.15866624	         59.45350929	         -0.30018078	          0.00000000	         -0.09789732	         -0.00755685	          0.10973258	          0.01978062	          0.00007920	          0.00000000	          0.00007638	          0.00000000	          2.56626630	          0.00000000	          0.00000000	          0.00006294	          0.00000000	
          3.17000000	          3.48423797	        751.08549993	         60.15515988	         -0.29902996	          0.00000000	         -0.09791524	         -0.00953538	          0.15705805	          0.02556991	          0.00010052	          0.00000000	          0.00009665	          0.00000000	          2.53268523	          0.00000000	          0.00000000	          0.00033079	          0.00000000	
          3.17500000	          5.86012259	        756.18912108	         60.85261869	         -0.29795919	          0.00000000	         -0.09792134	         -0.01144468	          0.21148675	          0.03144413	          0.00012138	          0.00000000	          0.00011634	          0.00000000	          2.48843142	          0.00000000	          0.00000000	          0.00070769	          0.00000000	
          3.18000000	          8.35460896	        761.45907310	         61.53606288	         -0.29696643	          0.00000000	         -0.09791433	         -0.01301055	          0.27027951	          0.03672631	          0.00013894	          0.00000000	          0.00013270	          0.00000000	          2.43409303	          0.00000000	          0.00000000	          0.00120814	          0.00000000	
          3.18500000	         10.97331073	        766.87950729	         62.19883093	         -0.29604840	          0.00000000	         -0.09789459	         -0.01384777	          0.32862669	          0.04043386	          0.00014919	          0.00000000	          0.00014184	          0.00000000	          2.37091692	          0.00000000	          0.00000000	          0.00183953	          0.00000000	
          3.19000000	         13.72007695	        772.42702217	         62.83796648	         -0.29520098	          0.00000000	         -0.09786274	         -0.01344549	          0.37908320	          0.04122871	          0.00014677	          0.00000000	          0.00013860	          0.00000000	          2.30040586	          0.00000000	          0.00000000	          0.00259725	          0.00000000	
          3.19500000	         16.59610229	        778.06938015	         63.45393884	         -0.29441995	          0.00000000	         -0.09782019	         -0.01115999	          0.41101246	          0.03738352	          0.00012489	          0.00000000	          0.00011646	          0.00000000	          2.22428169	          0.00000000	          0.00000000	          0.00345850	          0.00000000	
          3.20000000	         19.59902527	        783.76036195	         64.04942233	         -0.29370261	          0.00000000	         -0.09776960	         -0.00621967	          0.41011291	          0.02677697	          0.00007537	          0.00000000	          0.00006757	          0.00000000	          2.14384131	          0.00000000	          0.00000000	          0.00437498	          0.00000000	
          3.20500000	         22.72421744	        789.44087697	         64.62826666	         -0.29304700	          0.00000000	         -0.09771305	          0.00225121	          0.35813175	          0.00693499	         -0.00001114	          0.00000000	         -0.00001700	          0.00000000	          2.06012330	          0.00000000	          0.00000000	          0.00526457	          0.00000000	
